<mxfile host="app.diagrams.net" modified="2023-05-25T13:26:09.133Z" agent="Mozilla/5.0 (Windows NT 10.0; Win64; x64; rv:109.0) Gecko/20100101 Firefox/113.0" etag="L_9SHnPlug8ADx2ohDu4" version="21.3.4" type="github">
  <diagram name="Page-1" id="2YBvvXClWsGukQMizWep">
    <mxGraphModel dx="2085" dy="624" grid="1" gridSize="10" guides="1" tooltips="1" connect="1" arrows="1" fold="1" page="1" pageScale="1" pageWidth="850" pageHeight="1100" math="0" shadow="0">
      <root>
        <mxCell id="0" />
        <mxCell id="1" parent="0" />
        <mxCell id="aM9ryv3xv72pqoxQDRHE-1" value="ProjectController" style="shape=umlLifeline;perimeter=lifelinePerimeter;whiteSpace=wrap;html=1;container=0;dropTarget=0;collapsible=0;recursiveResize=0;outlineConnect=0;portConstraint=eastwest;newEdgeStyle={&quot;edgeStyle&quot;:&quot;elbowEdgeStyle&quot;,&quot;elbow&quot;:&quot;vertical&quot;,&quot;curved&quot;:0,&quot;rounded&quot;:0};" parent="1" vertex="1">
          <mxGeometry x="85" y="50" width="100" height="620" as="geometry" />
        </mxCell>
        <mxCell id="aM9ryv3xv72pqoxQDRHE-3" value="updateProject" style="html=1;verticalAlign=bottom;startArrow=oval;endArrow=block;startSize=8;edgeStyle=elbowEdgeStyle;elbow=vertical;curved=0;rounded=0;" parent="aM9ryv3xv72pqoxQDRHE-1" edge="1">
          <mxGeometry relative="1" as="geometry">
            <mxPoint x="-45" y="70" as="sourcePoint" />
            <mxPoint x="45" y="70" as="targetPoint" />
          </mxGeometry>
        </mxCell>
        <mxCell id="aM9ryv3xv72pqoxQDRHE-5" value="ProjectService" style="shape=umlLifeline;perimeter=lifelinePerimeter;whiteSpace=wrap;html=1;container=0;dropTarget=0;collapsible=0;recursiveResize=0;outlineConnect=0;portConstraint=eastwest;newEdgeStyle={&quot;edgeStyle&quot;:&quot;elbowEdgeStyle&quot;,&quot;elbow&quot;:&quot;vertical&quot;,&quot;curved&quot;:0,&quot;rounded&quot;:0};" parent="1" vertex="1">
          <mxGeometry x="320" y="50" width="100" height="610" as="geometry" />
        </mxCell>
        <mxCell id="t4FmrFXci7Go7VLxzQrX-55" value="" style="html=1;points=[];perimeter=orthogonalPerimeter;outlineConnect=0;targetShapes=umlLifeline;portConstraint=eastwest;newEdgeStyle={&quot;edgeStyle&quot;:&quot;elbowEdgeStyle&quot;,&quot;elbow&quot;:&quot;vertical&quot;,&quot;curved&quot;:0,&quot;rounded&quot;:0};" vertex="1" parent="1">
          <mxGeometry x="130" y="110" width="10" height="500" as="geometry" />
        </mxCell>
        <mxCell id="t4FmrFXci7Go7VLxzQrX-61" value="" style="html=1;points=[];perimeter=orthogonalPerimeter;outlineConnect=0;targetShapes=umlLifeline;portConstraint=eastwest;newEdgeStyle={&quot;edgeStyle&quot;:&quot;elbowEdgeStyle&quot;,&quot;elbow&quot;:&quot;vertical&quot;,&quot;curved&quot;:0,&quot;rounded&quot;:0};" vertex="1" parent="1">
          <mxGeometry x="365" y="130" width="10" height="60" as="geometry" />
        </mxCell>
        <mxCell id="t4FmrFXci7Go7VLxzQrX-72" value="" style="endArrow=classic;html=1;rounded=0;" edge="1" parent="1" source="t4FmrFXci7Go7VLxzQrX-55" target="t4FmrFXci7Go7VLxzQrX-61">
          <mxGeometry width="50" height="50" relative="1" as="geometry">
            <mxPoint x="140" y="200" as="sourcePoint" />
            <mxPoint x="370" y="210" as="targetPoint" />
            <Array as="points">
              <mxPoint x="250" y="130" />
            </Array>
          </mxGeometry>
        </mxCell>
        <mxCell id="t4FmrFXci7Go7VLxzQrX-73" value="1.1:getProjectById" style="edgeLabel;html=1;align=center;verticalAlign=middle;resizable=0;points=[];" vertex="1" connectable="0" parent="t4FmrFXci7Go7VLxzQrX-72">
          <mxGeometry x="-0.7107" relative="1" as="geometry">
            <mxPoint x="47" y="-10" as="offset" />
          </mxGeometry>
        </mxCell>
        <mxCell id="t4FmrFXci7Go7VLxzQrX-74" value="" style="endArrow=classic;html=1;rounded=0;" edge="1" parent="1" source="t4FmrFXci7Go7VLxzQrX-61" target="t4FmrFXci7Go7VLxzQrX-66">
          <mxGeometry width="50" height="50" relative="1" as="geometry">
            <mxPoint x="380" y="230" as="sourcePoint" />
            <mxPoint x="560" y="230" as="targetPoint" />
            <Array as="points">
              <mxPoint x="480" y="150" />
            </Array>
          </mxGeometry>
        </mxCell>
        <mxCell id="t4FmrFXci7Go7VLxzQrX-75" value="1.1.1:getProjectById" style="edgeLabel;html=1;align=center;verticalAlign=middle;resizable=0;points=[];" vertex="1" connectable="0" parent="t4FmrFXci7Go7VLxzQrX-74">
          <mxGeometry x="-0.7107" relative="1" as="geometry">
            <mxPoint x="47" y="-10" as="offset" />
          </mxGeometry>
        </mxCell>
        <mxCell id="t4FmrFXci7Go7VLxzQrX-76" value="" style="endArrow=classic;html=1;rounded=0;dashed=1;" edge="1" parent="1" source="t4FmrFXci7Go7VLxzQrX-66" target="t4FmrFXci7Go7VLxzQrX-61">
          <mxGeometry width="50" height="50" relative="1" as="geometry">
            <mxPoint x="260" y="240" as="sourcePoint" />
            <mxPoint x="380" y="250" as="targetPoint" />
            <Array as="points">
              <mxPoint x="460" y="170" />
            </Array>
          </mxGeometry>
        </mxCell>
        <mxCell id="t4FmrFXci7Go7VLxzQrX-77" value="" style="endArrow=classic;html=1;rounded=0;dashed=1;" edge="1" parent="1" target="t4FmrFXci7Go7VLxzQrX-55" source="aM9ryv3xv72pqoxQDRHE-5">
          <mxGeometry width="50" height="50" relative="1" as="geometry">
            <mxPoint x="370" y="270" as="sourcePoint" />
            <mxPoint x="140" y="270" as="targetPoint" />
            <Array as="points">
              <mxPoint x="260" y="190" />
            </Array>
          </mxGeometry>
        </mxCell>
        <mxCell id="t4FmrFXci7Go7VLxzQrX-108" value="IProjectRepository" style="shape=umlLifeline;perimeter=lifelinePerimeter;whiteSpace=wrap;html=1;container=0;dropTarget=0;collapsible=0;recursiveResize=0;outlineConnect=0;portConstraint=eastwest;newEdgeStyle={&quot;edgeStyle&quot;:&quot;elbowEdgeStyle&quot;,&quot;elbow&quot;:&quot;vertical&quot;,&quot;curved&quot;:0,&quot;rounded&quot;:0};" vertex="1" parent="1">
          <mxGeometry x="550" y="50" width="100" height="620" as="geometry" />
        </mxCell>
        <mxCell id="t4FmrFXci7Go7VLxzQrX-66" value="" style="html=1;points=[];perimeter=orthogonalPerimeter;outlineConnect=0;targetShapes=umlLifeline;portConstraint=eastwest;newEdgeStyle={&quot;edgeStyle&quot;:&quot;elbowEdgeStyle&quot;,&quot;elbow&quot;:&quot;vertical&quot;,&quot;curved&quot;:0,&quot;rounded&quot;:0};" vertex="1" parent="t4FmrFXci7Go7VLxzQrX-108">
          <mxGeometry x="45" y="100" width="10" height="20" as="geometry" />
        </mxCell>
        <mxCell id="t4FmrFXci7Go7VLxzQrX-116" value="" style="html=1;points=[];perimeter=orthogonalPerimeter;outlineConnect=0;targetShapes=umlLifeline;portConstraint=eastwest;newEdgeStyle={&quot;edgeStyle&quot;:&quot;elbowEdgeStyle&quot;,&quot;elbow&quot;:&quot;vertical&quot;,&quot;curved&quot;:0,&quot;rounded&quot;:0};" vertex="1" parent="t4FmrFXci7Go7VLxzQrX-108">
          <mxGeometry x="45" y="240" width="10" height="20" as="geometry" />
        </mxCell>
        <mxCell id="t4FmrFXci7Go7VLxzQrX-125" value="" style="html=1;points=[];perimeter=orthogonalPerimeter;outlineConnect=0;targetShapes=umlLifeline;portConstraint=eastwest;newEdgeStyle={&quot;edgeStyle&quot;:&quot;elbowEdgeStyle&quot;,&quot;elbow&quot;:&quot;vertical&quot;,&quot;curved&quot;:0,&quot;rounded&quot;:0};" vertex="1" parent="t4FmrFXci7Go7VLxzQrX-108">
          <mxGeometry x="45" y="334.66" width="10" height="20" as="geometry" />
        </mxCell>
        <mxCell id="t4FmrFXci7Go7VLxzQrX-129" value="" style="html=1;points=[];perimeter=orthogonalPerimeter;outlineConnect=0;targetShapes=umlLifeline;portConstraint=eastwest;newEdgeStyle={&quot;edgeStyle&quot;:&quot;elbowEdgeStyle&quot;,&quot;elbow&quot;:&quot;vertical&quot;,&quot;curved&quot;:0,&quot;rounded&quot;:0};" vertex="1" parent="t4FmrFXci7Go7VLxzQrX-108">
          <mxGeometry x="45" y="380" width="10" height="20" as="geometry" />
        </mxCell>
        <mxCell id="t4FmrFXci7Go7VLxzQrX-130" value="" style="html=1;points=[];perimeter=orthogonalPerimeter;outlineConnect=0;targetShapes=umlLifeline;portConstraint=eastwest;newEdgeStyle={&quot;edgeStyle&quot;:&quot;elbowEdgeStyle&quot;,&quot;elbow&quot;:&quot;vertical&quot;,&quot;curved&quot;:0,&quot;rounded&quot;:0};" vertex="1" parent="t4FmrFXci7Go7VLxzQrX-108">
          <mxGeometry x="45" y="510" width="10" height="20" as="geometry" />
        </mxCell>
        <mxCell id="t4FmrFXci7Go7VLxzQrX-109" value="" style="html=1;points=[];perimeter=orthogonalPerimeter;outlineConnect=0;targetShapes=umlLifeline;portConstraint=eastwest;newEdgeStyle={&quot;edgeStyle&quot;:&quot;elbowEdgeStyle&quot;,&quot;elbow&quot;:&quot;vertical&quot;,&quot;curved&quot;:0,&quot;rounded&quot;:0};" vertex="1" parent="1">
          <mxGeometry x="365" y="270" width="10" height="60" as="geometry" />
        </mxCell>
        <mxCell id="t4FmrFXci7Go7VLxzQrX-110" value="" style="endArrow=classic;html=1;rounded=0;" edge="1" parent="1" target="t4FmrFXci7Go7VLxzQrX-109">
          <mxGeometry width="50" height="50" relative="1" as="geometry">
            <mxPoint x="140" y="270" as="sourcePoint" />
            <mxPoint x="370" y="350" as="targetPoint" />
            <Array as="points">
              <mxPoint x="250" y="270" />
            </Array>
          </mxGeometry>
        </mxCell>
        <mxCell id="t4FmrFXci7Go7VLxzQrX-111" value="1.2:updateProject" style="edgeLabel;html=1;align=center;verticalAlign=middle;resizable=0;points=[];" vertex="1" connectable="0" parent="t4FmrFXci7Go7VLxzQrX-110">
          <mxGeometry x="-0.7107" relative="1" as="geometry">
            <mxPoint x="47" y="-10" as="offset" />
          </mxGeometry>
        </mxCell>
        <mxCell id="t4FmrFXci7Go7VLxzQrX-112" value="" style="endArrow=classic;html=1;rounded=0;" edge="1" parent="1" source="t4FmrFXci7Go7VLxzQrX-109" target="t4FmrFXci7Go7VLxzQrX-116">
          <mxGeometry width="50" height="50" relative="1" as="geometry">
            <mxPoint x="380" y="370" as="sourcePoint" />
            <mxPoint x="560" y="370" as="targetPoint" />
            <Array as="points">
              <mxPoint x="480" y="290" />
            </Array>
          </mxGeometry>
        </mxCell>
        <mxCell id="t4FmrFXci7Go7VLxzQrX-113" value="1.2.1:updateProject" style="edgeLabel;html=1;align=center;verticalAlign=middle;resizable=0;points=[];" vertex="1" connectable="0" parent="t4FmrFXci7Go7VLxzQrX-112">
          <mxGeometry x="-0.7107" relative="1" as="geometry">
            <mxPoint x="47" y="-10" as="offset" />
          </mxGeometry>
        </mxCell>
        <mxCell id="t4FmrFXci7Go7VLxzQrX-114" value="" style="endArrow=classic;html=1;rounded=0;dashed=1;" edge="1" parent="1" source="t4FmrFXci7Go7VLxzQrX-116" target="t4FmrFXci7Go7VLxzQrX-109">
          <mxGeometry width="50" height="50" relative="1" as="geometry">
            <mxPoint x="260" y="380" as="sourcePoint" />
            <mxPoint x="380" y="390" as="targetPoint" />
            <Array as="points">
              <mxPoint x="460" y="310" />
            </Array>
          </mxGeometry>
        </mxCell>
        <mxCell id="t4FmrFXci7Go7VLxzQrX-115" value="" style="endArrow=classic;html=1;rounded=0;dashed=1;" edge="1" parent="1">
          <mxGeometry width="50" height="50" relative="1" as="geometry">
            <mxPoint x="370" y="330" as="sourcePoint" />
            <mxPoint x="140" y="330" as="targetPoint" />
            <Array as="points">
              <mxPoint x="260" y="330" />
            </Array>
          </mxGeometry>
        </mxCell>
        <mxCell id="t4FmrFXci7Go7VLxzQrX-118" value="" style="html=1;points=[];perimeter=orthogonalPerimeter;outlineConnect=0;targetShapes=umlLifeline;portConstraint=eastwest;newEdgeStyle={&quot;edgeStyle&quot;:&quot;elbowEdgeStyle&quot;,&quot;elbow&quot;:&quot;vertical&quot;,&quot;curved&quot;:0,&quot;rounded&quot;:0};" vertex="1" parent="1">
          <mxGeometry x="365" y="364.66" width="10" height="105.34" as="geometry" />
        </mxCell>
        <mxCell id="t4FmrFXci7Go7VLxzQrX-119" value="" style="endArrow=classic;html=1;rounded=0;" edge="1" parent="1" target="t4FmrFXci7Go7VLxzQrX-118">
          <mxGeometry width="50" height="50" relative="1" as="geometry">
            <mxPoint x="140" y="364.66" as="sourcePoint" />
            <mxPoint x="370" y="444.66" as="targetPoint" />
            <Array as="points">
              <mxPoint x="250" y="364.66" />
            </Array>
          </mxGeometry>
        </mxCell>
        <mxCell id="t4FmrFXci7Go7VLxzQrX-120" value="1.3:updateTaskAndSubtaskDates" style="edgeLabel;html=1;align=center;verticalAlign=middle;resizable=0;points=[];" vertex="1" connectable="0" parent="t4FmrFXci7Go7VLxzQrX-119">
          <mxGeometry x="-0.7107" relative="1" as="geometry">
            <mxPoint x="88" y="-10" as="offset" />
          </mxGeometry>
        </mxCell>
        <mxCell id="t4FmrFXci7Go7VLxzQrX-121" value="" style="endArrow=classic;html=1;rounded=0;" edge="1" parent="1" source="t4FmrFXci7Go7VLxzQrX-118" target="t4FmrFXci7Go7VLxzQrX-125">
          <mxGeometry width="50" height="50" relative="1" as="geometry">
            <mxPoint x="380" y="464.66" as="sourcePoint" />
            <mxPoint x="560" y="464.66" as="targetPoint" />
            <Array as="points">
              <mxPoint x="480" y="384.66" />
            </Array>
          </mxGeometry>
        </mxCell>
        <mxCell id="t4FmrFXci7Go7VLxzQrX-122" value="1.3.1:getTaskAndSubtaskList" style="edgeLabel;html=1;align=center;verticalAlign=middle;resizable=0;points=[];" vertex="1" connectable="0" parent="t4FmrFXci7Go7VLxzQrX-121">
          <mxGeometry x="-0.7107" relative="1" as="geometry">
            <mxPoint x="67" y="-10" as="offset" />
          </mxGeometry>
        </mxCell>
        <mxCell id="t4FmrFXci7Go7VLxzQrX-123" value="" style="endArrow=classic;html=1;rounded=0;dashed=1;" edge="1" parent="1" source="t4FmrFXci7Go7VLxzQrX-125" target="t4FmrFXci7Go7VLxzQrX-118">
          <mxGeometry width="50" height="50" relative="1" as="geometry">
            <mxPoint x="260" y="474.66" as="sourcePoint" />
            <mxPoint x="380" y="484.66" as="targetPoint" />
            <Array as="points">
              <mxPoint x="460" y="404.66" />
            </Array>
          </mxGeometry>
        </mxCell>
        <mxCell id="t4FmrFXci7Go7VLxzQrX-124" value="" style="endArrow=classic;html=1;rounded=0;dashed=1;" edge="1" parent="1" source="t4FmrFXci7Go7VLxzQrX-118">
          <mxGeometry width="50" height="50" relative="1" as="geometry">
            <mxPoint x="370" y="424.66" as="sourcePoint" />
            <mxPoint x="140" y="470" as="targetPoint" />
            <Array as="points">
              <mxPoint x="260" y="470" />
            </Array>
          </mxGeometry>
        </mxCell>
        <mxCell id="t4FmrFXci7Go7VLxzQrX-126" value="" style="endArrow=classic;html=1;rounded=0;" edge="1" parent="1" target="t4FmrFXci7Go7VLxzQrX-129">
          <mxGeometry width="50" height="50" relative="1" as="geometry">
            <mxPoint x="375" y="430.34000000000003" as="sourcePoint" />
            <mxPoint x="560" y="510" as="targetPoint" />
            <Array as="points">
              <mxPoint x="480" y="430" />
            </Array>
          </mxGeometry>
        </mxCell>
        <mxCell id="t4FmrFXci7Go7VLxzQrX-127" value="1.3.2:updateTaskAndSubtaskDates" style="edgeLabel;html=1;align=center;verticalAlign=middle;resizable=0;points=[];" vertex="1" connectable="0" parent="t4FmrFXci7Go7VLxzQrX-126">
          <mxGeometry x="-0.7107" relative="1" as="geometry">
            <mxPoint x="83" y="-10" as="offset" />
          </mxGeometry>
        </mxCell>
        <mxCell id="t4FmrFXci7Go7VLxzQrX-128" value="" style="endArrow=classic;html=1;rounded=0;dashed=1;" edge="1" parent="1" source="t4FmrFXci7Go7VLxzQrX-129">
          <mxGeometry width="50" height="50" relative="1" as="geometry">
            <mxPoint x="260" y="520" as="sourcePoint" />
            <mxPoint x="375" y="450.34000000000003" as="targetPoint" />
            <Array as="points">
              <mxPoint x="460" y="450" />
            </Array>
          </mxGeometry>
        </mxCell>
        <mxCell id="t4FmrFXci7Go7VLxzQrX-131" value="" style="html=1;points=[];perimeter=orthogonalPerimeter;outlineConnect=0;targetShapes=umlLifeline;portConstraint=eastwest;newEdgeStyle={&quot;edgeStyle&quot;:&quot;elbowEdgeStyle&quot;,&quot;elbow&quot;:&quot;vertical&quot;,&quot;curved&quot;:0,&quot;rounded&quot;:0};" vertex="1" parent="1">
          <mxGeometry x="365" y="540" width="10" height="60" as="geometry" />
        </mxCell>
        <mxCell id="t4FmrFXci7Go7VLxzQrX-132" value="" style="endArrow=classic;html=1;rounded=0;" edge="1" parent="1" target="t4FmrFXci7Go7VLxzQrX-131">
          <mxGeometry width="50" height="50" relative="1" as="geometry">
            <mxPoint x="140" y="540" as="sourcePoint" />
            <mxPoint x="370" y="620" as="targetPoint" />
            <Array as="points">
              <mxPoint x="250" y="540" />
            </Array>
          </mxGeometry>
        </mxCell>
        <mxCell id="t4FmrFXci7Go7VLxzQrX-133" value="1.4:updateProject" style="edgeLabel;html=1;align=center;verticalAlign=middle;resizable=0;points=[];" vertex="1" connectable="0" parent="t4FmrFXci7Go7VLxzQrX-132">
          <mxGeometry x="-0.7107" relative="1" as="geometry">
            <mxPoint x="47" y="-10" as="offset" />
          </mxGeometry>
        </mxCell>
        <mxCell id="t4FmrFXci7Go7VLxzQrX-134" value="" style="endArrow=classic;html=1;rounded=0;" edge="1" parent="1" source="t4FmrFXci7Go7VLxzQrX-131" target="t4FmrFXci7Go7VLxzQrX-130">
          <mxGeometry width="50" height="50" relative="1" as="geometry">
            <mxPoint x="380" y="640" as="sourcePoint" />
            <mxPoint x="560" y="640" as="targetPoint" />
            <Array as="points">
              <mxPoint x="480" y="560" />
            </Array>
          </mxGeometry>
        </mxCell>
        <mxCell id="t4FmrFXci7Go7VLxzQrX-135" value="1.4.1:updateProject" style="edgeLabel;html=1;align=center;verticalAlign=middle;resizable=0;points=[];" vertex="1" connectable="0" parent="t4FmrFXci7Go7VLxzQrX-134">
          <mxGeometry x="-0.7107" relative="1" as="geometry">
            <mxPoint x="47" y="-10" as="offset" />
          </mxGeometry>
        </mxCell>
        <mxCell id="t4FmrFXci7Go7VLxzQrX-136" value="" style="endArrow=classic;html=1;rounded=0;dashed=1;" edge="1" parent="1" source="t4FmrFXci7Go7VLxzQrX-130" target="t4FmrFXci7Go7VLxzQrX-131">
          <mxGeometry width="50" height="50" relative="1" as="geometry">
            <mxPoint x="260" y="650" as="sourcePoint" />
            <mxPoint x="380" y="660" as="targetPoint" />
            <Array as="points">
              <mxPoint x="460" y="580" />
            </Array>
          </mxGeometry>
        </mxCell>
        <mxCell id="t4FmrFXci7Go7VLxzQrX-137" value="" style="endArrow=classic;html=1;rounded=0;dashed=1;" edge="1" parent="1" source="t4FmrFXci7Go7VLxzQrX-131">
          <mxGeometry width="50" height="50" relative="1" as="geometry">
            <mxPoint x="350" y="600" as="sourcePoint" />
            <mxPoint x="140" y="600" as="targetPoint" />
            <Array as="points">
              <mxPoint x="260" y="600" />
            </Array>
          </mxGeometry>
        </mxCell>
        <mxCell id="t4FmrFXci7Go7VLxzQrX-138" value="alt" style="shape=umlFrame;whiteSpace=wrap;html=1;pointerEvents=0;" vertex="1" parent="1">
          <mxGeometry x="-110" y="240" width="740" height="250" as="geometry" />
        </mxCell>
        <mxCell id="t4FmrFXci7Go7VLxzQrX-140" value="" style="verticalAlign=top;align=left;overflow=fill;fontSize=12;fontFamily=Helvetica;html=1;whiteSpace=wrap;fillColor=none;" vertex="1" parent="1">
          <mxGeometry x="-110" y="490" width="740" height="130" as="geometry" />
        </mxCell>
        <mxCell id="t4FmrFXci7Go7VLxzQrX-141" value="[if originalProjectDates != newProjectDates] " style="text;html=1;align=center;verticalAlign=middle;resizable=0;points=[];autosize=1;strokeColor=none;fillColor=none;" vertex="1" parent="1">
          <mxGeometry x="-110" y="270" width="250" height="30" as="geometry" />
        </mxCell>
        <mxCell id="t4FmrFXci7Go7VLxzQrX-143" value="[else]" style="text;html=1;strokeColor=none;fillColor=none;align=center;verticalAlign=middle;whiteSpace=wrap;rounded=0;" vertex="1" parent="1">
          <mxGeometry x="-110" y="490" width="60" height="30" as="geometry" />
        </mxCell>
      </root>
    </mxGraphModel>
  </diagram>
</mxfile>
